<svg version="1.1" id="Layer_1" xmlns="http://www.w3.org/2000/svg" xmlns:xlink="http://www.w3.org/1999/xlink" x="0px" y="0px"
	 width="100%" viewBox="0 0 500 500" enable-background="new 0 0 500 500" xml:space="preserve">
<path fill="#000000" opacity="1.000000" stroke="none" 
	d="
M219.000000,501.000000 
	C146.000015,501.000000 73.500038,501.000000 1.000039,501.000000 
	C1.000026,334.333405 1.000026,167.666779 1.000013,1.000128 
	C167.666565,1.000086 334.333130,1.000086 500.999756,1.000043 
	C500.999847,167.666534 500.999847,334.333069 500.999939,500.999817 
	C407.166656,501.000000 313.333344,501.000000 219.000000,501.000000 
M333.020538,205.423706 
	C333.126038,204.314407 333.231567,203.205124 333.920227,201.560257 
	C334.338989,199.693771 335.083130,197.833527 335.119080,195.959686 
	C335.259033,188.657791 335.174255,181.351593 335.173462,174.046997 
	C335.173065,170.346359 335.173401,166.645737 335.173401,161.887558 
	C328.898041,167.593155 323.610809,172.400330 317.496979,177.006531 
	C316.668732,176.965149 315.765320,177.126633 315.023499,176.851913 
	C304.134094,172.819412 293.267609,168.725204 282.392883,164.653091 
	C271.276123,160.490372 260.156403,156.335754 248.329697,152.330368 
	C237.873108,156.174042 227.415009,160.013657 216.960297,163.862411 
	C203.593246,168.783249 190.228928,173.711456 176.139175,178.884048 
	C171.633270,180.358475 167.127350,181.832901 162.334976,183.401062 
	C163.940796,191.084595 165.505020,198.569000 166.935806,206.752853 
	C167.244751,207.580002 167.553711,208.407166 167.947464,209.841248 
	C167.991882,210.247360 168.036316,210.653473 167.966095,211.751999 
	C168.274857,212.573105 168.583618,213.394211 168.948929,214.896622 
	C168.986191,215.579193 169.023453,216.261765 168.943085,217.781921 
	C170.045700,224.527512 171.148315,231.273102 172.145309,238.782654 
	C172.147430,239.552689 172.149551,240.322739 172.027527,241.919403 
	C172.334518,244.282303 172.641525,246.645203 173.025131,249.863007 
	C173.075607,251.579330 173.126083,253.295654 173.026093,255.758484 
	C173.195557,257.190521 173.365021,258.622528 173.830811,260.855072 
	C175.446732,267.247864 177.062653,273.640656 178.981720,280.733673 
	C181.534317,286.333984 183.906433,292.026611 186.705399,297.500946 
	C188.458923,300.930542 190.488068,304.357941 193.032700,307.217560 
	C199.854507,314.883728 206.260056,323.209900 214.236816,329.487457 
	C224.857391,337.845581 236.807266,344.514618 248.530197,351.701691 
	C248.732193,351.498291 248.828705,351.253235 248.884018,350.880280 
	C248.884018,350.880280 248.893616,350.773102 249.499176,351.030182 
	C250.574051,350.956726 251.863205,351.245819 252.691956,350.755951 
	C267.096954,342.241180 281.362518,333.470459 293.175079,321.429260 
	C297.844971,316.669037 301.880371,311.286346 306.504211,305.817871 
	C306.710968,305.577759 306.899628,305.324188 307.672913,304.742615 
	C309.489655,301.903259 311.306396,299.063904 313.680267,295.799286 
	C314.385620,294.490997 315.041687,293.153198 315.804169,291.879089 
	C321.862671,281.755646 324.507477,270.556061 326.674316,258.476013 
	C326.756073,256.984161 326.837860,255.492310 327.347595,253.265076 
	C328.169830,242.502502 328.992065,231.739944 330.245087,220.300934 
	C331.107727,215.531311 331.970367,210.761673 333.020538,205.423706 
z"/>
<path fill="#0F324E" opacity="1.000000" stroke="none" 
	d="
M176.863449,178.636505 
	C190.228928,173.711456 203.593246,168.783249 216.960297,163.862411 
	C227.415009,160.013657 237.873108,156.174042 248.675034,152.709930 
	C249.023407,163.058762 249.026443,173.028000 248.987198,183.460663 
	C248.959396,188.286575 248.973877,192.649048 248.960846,197.472992 
	C248.948883,201.957138 248.964401,205.979843 248.960724,210.470032 
	C248.959579,216.625137 248.977631,222.312744 248.984558,228.463379 
	C249.417252,234.925629 249.861069,240.924866 250.212433,247.178024 
	C250.075714,247.606567 250.031464,247.781189 249.722198,248.042084 
	C248.990585,248.423203 248.524002,248.718094 247.833588,248.761597 
	C244.920822,246.020523 242.231888,243.530807 239.392441,240.768646 
	C236.808136,238.087448 234.374329,235.678680 231.893219,233.162537 
	C231.845901,233.055161 231.635605,232.951035 231.585846,232.820312 
	C231.425934,232.523422 231.272079,232.426498 230.865417,232.125183 
	C230.287552,231.581665 229.918854,231.311798 229.406982,230.833710 
	C228.828064,230.396317 228.392273,230.167145 227.956787,229.990860 
	C227.957092,230.043747 228.062881,230.043182 228.025665,229.800537 
	C227.665131,229.208267 227.341827,228.858612 226.893311,228.333252 
	C226.768112,228.157547 226.404221,227.925674 226.261459,227.660889 
	C223.248627,222.740143 219.050919,221.944565 213.863251,223.220947 
	C213.427170,223.148422 213.251358,223.125717 212.982330,222.731781 
	C212.516434,220.011963 212.143768,217.663406 211.740463,215.121841 
	C213.701736,215.400452 214.901169,215.570831 216.348587,215.776443 
	C216.682693,211.109222 213.576385,211.148071 210.825378,211.019745 
	C201.182465,210.569946 193.412857,205.229797 188.849396,198.030014 
	C185.372971,192.545197 182.423599,186.764099 177.944534,181.907593 
	C177.235489,181.138824 177.206726,179.742615 176.863449,178.636505 
z"/>
<path fill="#133452" opacity="1.000000" stroke="none" 
	d="
M306.204651,306.187073 
	C301.880371,311.286346 297.844971,316.669037 293.175079,321.429260 
	C281.362518,333.470459 267.096954,342.241180 252.691956,350.755951 
	C251.863205,351.245819 250.574051,350.956726 249.134277,350.520630 
	C248.717331,342.047943 248.665268,334.084778 248.675110,325.684265 
	C248.743195,323.505737 248.749390,321.764618 248.781586,319.554077 
	C248.828979,312.404724 248.850372,305.724792 248.887573,298.638489 
	C248.921204,296.877655 248.939011,295.523224 249.152557,293.882996 
	C251.571335,291.410400 253.794418,289.223572 255.958527,287.421295 
	C255.399597,290.662354 254.899643,293.518860 254.300934,296.939514 
	C264.260986,295.388275 272.329437,298.539581 280.289490,302.530487 
	C282.708923,303.743561 285.618652,304.115265 288.355774,304.525818 
	C292.355927,305.125854 294.253387,307.848694 293.191681,311.825867 
	C292.962311,312.685059 293.006165,313.617188 292.924133,314.515717 
	C293.362183,314.771240 293.800262,315.026733 294.238312,315.282257 
	C295.594116,313.549469 297.333954,311.986328 298.195801,310.035339 
	C299.027832,308.151672 298.954346,305.867981 299.278656,303.760040 
	C301.423645,304.539124 303.568085,305.319794 305.714874,306.093903 
	C305.869263,306.149536 306.040985,306.157135 306.204651,306.187073 
M289.963135,310.051025 
	C289.963135,310.051025 289.925751,310.004089 289.963135,310.051025 
z"/>
<path fill="#2F5E85" opacity="1.000000" stroke="none" 
	d="
M249.029480,182.997253 
	C249.026443,173.028000 249.023407,163.058762 249.029175,152.633545 
	C260.156403,156.335754 271.276123,160.490372 282.392883,164.653091 
	C293.267609,168.725204 304.134094,172.819412 315.023499,176.851913 
	C315.765320,177.126633 316.668732,176.965149 317.894958,177.437073 
	C317.800781,178.834595 317.308685,179.801575 316.597656,180.890533 
	C316.182159,181.278137 315.985535,181.543793 315.590485,181.941650 
	C315.153168,182.296143 314.985168,182.563019 314.672760,182.990295 
	C314.188965,183.310867 314.006866,183.575165 313.692017,184.011688 
	C313.209381,184.340149 313.035522,184.613007 312.727509,185.044739 
	C312.220337,185.339325 312.032959,185.600891 311.719727,186.037155 
	C311.221863,186.343796 311.038177,186.608536 310.723694,187.039734 
	C310.221558,187.337723 310.033417,187.598816 309.709503,188.025055 
	C309.198792,188.316849 309.001373,188.575165 308.563171,188.946259 
	C306.831299,190.009399 305.426758,191.025955 303.881287,192.273285 
	C303.486969,192.982010 303.233582,193.459976 302.855316,194.169479 
	C302.460693,194.620865 302.190918,194.840714 301.681946,195.223602 
	C301.127167,195.613403 300.811584,195.840149 300.553558,196.210999 
	C300.531586,196.605301 300.367188,196.689331 299.869171,196.637024 
	C299.453583,196.674988 299.286774,196.683136 299.004730,196.359985 
	C297.149780,194.990479 295.384918,193.021317 293.674438,193.067474 
	C283.728668,193.335846 274.155609,192.253159 265.230988,187.472946 
	C264.399963,187.027832 263.248779,187.227829 262.297272,186.952118 
	C257.864868,185.667709 253.450378,184.321411 249.029480,182.997253 
z"/>
<path fill="#2B4F71" opacity="1.000000" stroke="none" 
	d="
M248.613220,326.121643 
	C248.665268,334.084778 248.717331,342.047943 248.831512,350.392090 
	C248.893616,350.773102 248.884018,350.880280 248.724243,351.065308 
	C248.421707,351.460419 248.295593,351.680054 248.186111,351.909241 
	C236.807266,344.514618 224.857391,337.845581 214.236816,329.487457 
	C206.260056,323.209900 199.854507,314.883728 193.032700,307.217560 
	C190.488068,304.357941 188.458923,300.930542 186.705399,297.500946 
	C183.906433,292.026611 181.534317,286.333984 179.110260,280.237793 
	C179.840332,279.174835 180.441864,278.607697 181.355621,278.164368 
	C191.518082,286.337372 204.244263,290.572479 212.102264,301.310608 
	C213.016403,302.559814 214.861069,303.104462 216.215698,304.058960 
	C222.413864,308.426483 228.575348,312.846161 234.781265,317.202545 
	C239.273605,320.356018 241.960693,326.318878 248.613220,326.121643 
z"/>
<path fill="#1D405F" opacity="1.000000" stroke="none" 
	d="
M248.956833,294.168762 
	C248.939011,295.523224 248.921204,296.877655 248.523941,298.590088 
	C240.492752,295.426758 231.169525,294.923004 226.158066,286.584656 
	C225.570480,285.607025 223.891006,285.325867 222.792252,284.607788 
	C219.197342,282.258301 215.554962,279.968506 212.087234,277.441132 
	C208.895187,275.114746 206.126755,272.148254 202.780319,270.104736 
	C195.704178,265.783630 188.438889,261.754547 181.096725,257.899902 
	C179.372208,256.994507 177.033981,257.258026 174.832733,256.757141 
	C174.183746,256.024323 173.680145,255.518158 173.176544,255.011978 
	C173.126083,253.295654 173.075607,251.579330 173.127014,249.106415 
	C172.869827,245.930801 172.510757,243.511795 172.151672,241.092773 
	C172.149551,240.322739 172.147430,239.552689 172.594818,238.415604 
	C182.099091,238.871719 189.613358,243.096909 196.908264,248.219879 
	C200.128998,250.481674 204.242813,251.471771 208.176910,253.282776 
	C213.086868,258.656982 217.613541,263.943756 222.499680,268.874298 
	C227.376862,273.795837 232.614105,278.360535 237.847214,283.390503 
	C241.652893,287.189148 245.304871,290.678955 248.956833,294.168762 
z"/>
<path fill="#133452" opacity="1.000000" stroke="none" 
	d="
M176.501312,178.760284 
	C177.206726,179.742615 177.235489,181.138824 177.944534,181.907593 
	C182.423599,186.764099 185.372971,192.545197 188.849396,198.030014 
	C193.412857,205.229797 201.182465,210.569946 210.825378,211.019745 
	C213.576385,211.148071 216.682693,211.109222 216.348587,215.776443 
	C214.901169,215.570831 213.701736,215.400452 211.740463,215.121841 
	C212.143768,217.663406 212.516434,220.011963 212.963287,223.188614 
	C212.987518,230.343765 212.937607,236.670822 212.587830,243.123505 
	C210.530502,244.168716 208.773026,245.088303 207.013184,245.539856 
	C207.001633,241.574081 207.052582,238.074951 206.971588,234.578888 
	C206.757645,225.342911 202.627487,221.397690 193.253281,221.388916 
	C185.220169,221.381424 177.265030,215.320190 174.683197,207.456894 
	C174.145584,205.819489 172.944427,204.399948 172.049072,202.880005 
	C171.531128,203.049591 171.013199,203.219162 170.495270,203.388748 
	C170.495270,205.591202 170.681442,207.813904 170.444733,209.990616 
	C170.190216,212.331009 169.538895,214.628265 169.060699,216.944336 
	C169.023453,216.261765 168.986191,215.579193 168.897339,214.227493 
	C168.590744,212.725433 168.335739,211.892517 168.080734,211.059586 
	C168.036316,210.653473 167.991882,210.247360 167.891754,209.206131 
	C167.580444,207.731812 167.324829,206.892609 167.069214,206.053406 
	C165.505020,198.569000 163.940796,191.084595 162.334976,183.401062 
	C167.127350,181.832901 171.633270,180.358475 176.501312,178.760284 
z"/>
<path fill="#214565" opacity="1.000000" stroke="none" 
	d="
M174.978119,256.983795 
	C177.033981,257.258026 179.372208,256.994507 181.096725,257.899902 
	C188.438889,261.754547 195.704178,265.783630 202.780319,270.104736 
	C206.126755,272.148254 208.895187,275.114746 212.087234,277.441132 
	C215.554962,279.968506 219.197342,282.258301 222.792252,284.607788 
	C223.891006,285.325867 225.570480,285.607025 226.158066,286.584656 
	C231.169525,294.923004 240.492752,295.426758 248.508118,298.996460 
	C248.850372,305.724792 248.828979,312.404724 248.460632,319.470947 
	C246.461212,318.336304 244.735519,316.886017 243.179489,315.272217 
	C241.930038,313.976379 241.133286,312.128754 239.710403,311.134521 
	C231.442719,305.357391 223.013733,299.811737 214.710342,294.084808 
	C208.760468,289.981140 202.788712,285.886780 197.095032,281.444336 
	C194.604614,279.501221 192.870255,276.834564 188.987778,277.981628 
	C188.046982,278.259583 186.522568,276.830872 185.366776,276.040375 
	C184.100067,275.174011 182.949402,274.137970 181.748169,273.175873 
	C181.513245,274.797455 181.278320,276.419006 181.043396,278.040588 
	C180.441864,278.607697 179.840332,279.174835 178.958694,279.887695 
	C177.062653,273.640656 175.446732,267.247864 173.878174,260.170807 
	C174.276398,258.652313 174.627258,257.818054 174.978119,256.983795 
z"/>
<path fill="#163A57" opacity="1.000000" stroke="none" 
	d="
M306.354431,306.002472 
	C306.040985,306.157135 305.869263,306.149536 305.714874,306.093903 
	C303.568085,305.319794 301.423645,304.539124 299.278656,303.760040 
	C298.954346,305.867981 299.027832,308.151672 298.195801,310.035339 
	C297.333954,311.986328 295.594116,313.549469 294.238312,315.282257 
	C293.800262,315.026733 293.362183,314.771240 292.924133,314.515717 
	C293.006165,313.617188 292.962311,312.685059 293.191681,311.825867 
	C294.253387,307.848694 292.355927,305.125854 288.355774,304.525818 
	C285.618652,304.115265 282.708923,303.743561 280.289490,302.530487 
	C272.329437,298.539581 264.260986,295.388275 254.300934,296.939514 
	C254.899643,293.518860 255.399597,290.662354 256.152985,287.147644 
	C261.254272,281.631287 266.102142,276.773132 271.160156,272.183838 
	C277.311890,276.001740 283.497437,279.205719 289.131073,283.190125 
	C295.659882,287.807617 301.703705,293.110840 307.784973,298.363220 
	C307.431366,300.759064 307.250793,302.908112 307.070251,305.057159 
	C306.899628,305.324188 306.710968,305.577759 306.354431,306.002472 
z"/>
<path fill="#163A57" opacity="1.000000" stroke="none" 
	d="
M169.001892,217.363129 
	C169.538895,214.628265 170.190216,212.331009 170.444733,209.990616 
	C170.681442,207.813904 170.495270,205.591202 170.495270,203.388748 
	C171.013199,203.219162 171.531128,203.049591 172.049072,202.880005 
	C172.944427,204.399948 174.145584,205.819489 174.683197,207.456894 
	C177.265030,215.320190 185.220169,221.381424 193.253281,221.388916 
	C202.627487,221.397690 206.757645,225.342911 206.971588,234.578888 
	C207.052582,238.074951 207.001633,241.574081 207.040497,245.932953 
	C207.363846,248.875793 207.657516,250.957489 207.951187,253.039185 
	C204.242813,251.471771 200.128998,250.481674 196.908264,248.219879 
	C189.613358,243.096909 182.099091,238.871719 172.647629,238.033630 
	C171.148315,231.273102 170.045700,224.527512 169.001892,217.363129 
z"/>
<path fill="#1D405F" opacity="1.000000" stroke="none" 
	d="
M307.958069,298.116394 
	C301.703705,293.110840 295.659882,287.807617 289.131073,283.190125 
	C283.497437,279.205719 277.311890,276.001740 271.345886,271.910522 
	C274.146698,268.528198 276.972015,265.688141 279.892456,263.198364 
	C281.002167,267.064636 283.039185,266.980713 285.644379,265.216064 
	C286.684021,264.511841 288.195557,263.189850 288.888580,263.499664 
	C293.689819,265.645966 298.749359,267.589172 302.907471,270.693817 
	C307.047485,273.784912 310.231323,278.156616 313.997772,282.139496 
	C317.283936,279.336029 314.240509,276.653625 314.347748,274.099121 
	C319.216461,276.499176 321.227875,274.668915 322.308868,270.085297 
	C323.198822,266.311768 324.872070,262.722992 326.198181,259.052338 
	C324.507477,270.556061 321.862671,281.755646 315.804169,291.879089 
	C315.041687,293.153198 314.385620,294.490997 313.143066,295.994598 
	C311.056610,296.832062 309.507324,297.474243 307.958069,298.116394 
z"/>
<path fill="#2B4F71" opacity="1.000000" stroke="none" 
	d="
M329.814270,220.977371 
	C328.992065,231.739944 328.169830,242.502502 326.966156,253.372345 
	C325.843689,252.646698 325.256226,251.381927 324.335419,251.054382 
	C319.963776,249.499420 315.401093,248.451233 311.099640,246.737701 
	C306.909821,245.068604 302.954132,242.811691 299.036926,240.517288 
	C306.417206,232.087402 313.656219,223.953110 320.944641,216.208542 
	C322.706329,224.415344 324.474457,225.293198 329.814270,220.977371 
z"/>
<path fill="#22486A" opacity="1.000000" stroke="none" 
	d="
M298.895660,240.812897 
	C302.954132,242.811691 306.909821,245.068604 311.099640,246.737701 
	C315.401093,248.451233 319.963776,249.499420 324.335419,251.054382 
	C325.256226,251.381927 325.843689,252.646698 326.752197,253.740051 
	C326.837860,255.492310 326.756073,256.984161 326.436249,258.764160 
	C324.872070,262.722992 323.198822,266.311768 322.308868,270.085297 
	C321.227875,274.668915 319.216461,276.499176 314.220337,273.781189 
	C312.285034,271.406189 310.708374,269.504028 309.373199,267.445251 
	C306.407806,262.872772 298.961426,260.778656 302.642670,252.037079 
	C299.701263,253.948563 298.142365,254.961624 295.870148,256.438232 
	C295.036621,252.808258 294.335663,249.755722 293.779663,246.404785 
	C295.581635,244.341888 297.238647,242.577393 298.895660,240.812897 
z"/>
<path fill="#8CC862" opacity="1.000000" stroke="none" 
	d="
M316.816589,180.768555 
	C317.308685,179.801575 317.800781,178.834595 318.308258,177.537552 
	C323.610809,172.400330 328.898041,167.593155 335.173401,161.887558 
	C335.173401,166.645737 335.173065,170.346359 335.173462,174.046997 
	C335.174255,181.351593 335.259033,188.657791 335.119080,195.959686 
	C335.083130,197.833527 334.338989,199.693771 333.392090,201.630203 
	C331.561920,202.778519 330.259918,203.856903 328.959656,204.962387 
	C328.961456,204.989502 328.980927,204.940842 328.718872,205.007141 
	C328.283356,205.377899 328.109863,205.682373 327.966431,205.985779 
	C327.996521,205.984726 327.970978,205.930222 327.727844,205.939438 
	C327.484711,205.948654 327.003693,206.022141 327.068909,205.698212 
	C327.147278,201.003525 327.594543,196.579559 327.066803,192.275116 
	C326.363007,186.534912 322.406799,183.172287 317.045166,181.156128 
	C316.969421,181.026688 316.816559,180.768539 316.816589,180.768555 
z"/>
<path fill="#2B567C" opacity="1.000000" stroke="none" 
	d="
M330.029694,220.639160 
	C324.474457,225.293198 322.706329,224.415344 321.074219,215.896713 
	C321.366730,214.797287 321.579041,214.399429 322.012207,213.828918 
	C322.815948,212.420029 323.398834,211.183807 323.992310,209.974915 
	C324.002930,210.002228 323.944550,209.996826 324.242340,209.916428 
	C325.079346,209.257614 325.618561,208.679199 326.345856,207.981674 
	C326.773560,207.679840 326.979218,207.464661 327.349152,207.046600 
	C327.688629,206.560867 327.829803,206.245544 327.970978,205.930222 
	C327.970978,205.930222 327.996521,205.984726 328.180847,205.854782 
	C328.570435,205.463501 328.775696,205.202179 328.980927,204.940842 
	C328.980927,204.940842 328.961456,204.989502 329.275970,205.075378 
	C330.671326,205.438187 331.752197,205.715118 332.833038,205.992050 
	C331.970367,210.761673 331.107727,215.531311 330.029694,220.639160 
z"/>
<path fill="#133452" opacity="1.000000" stroke="none" 
	d="
M307.784973,298.363220 
	C309.507324,297.474243 311.056610,296.832062 312.864502,296.207214 
	C311.306396,299.063904 309.489655,301.903259 307.371582,304.899902 
	C307.250793,302.908112 307.431366,300.759064 307.784973,298.363220 
z"/>
<path fill="#163A57" opacity="1.000000" stroke="none" 
	d="
M172.089600,241.506088 
	C172.510757,243.511795 172.869827,245.930801 173.088715,248.678955 
	C172.641525,246.645203 172.334518,244.282303 172.089600,241.506088 
z"/>
<path fill="#163A57" opacity="1.000000" stroke="none" 
	d="
M332.926788,205.707886 
	C331.752197,205.715118 330.671326,205.438187 329.274170,205.048279 
	C330.259918,203.856903 331.561920,202.778519 333.100525,201.897980 
	C333.231567,203.205124 333.126038,204.314407 332.926788,205.707886 
z"/>
<path fill="#163A57" opacity="1.000000" stroke="none" 
	d="
M174.832733,256.757141 
	C174.627258,257.818054 174.276398,258.652313 173.730011,259.770569 
	C173.365021,258.622528 173.195557,257.190521 173.101318,255.385223 
	C173.680145,255.518158 174.183746,256.024323 174.832733,256.757141 
z"/>
<path fill="#163A57" opacity="1.000000" stroke="none" 
	d="
M168.023407,211.405792 
	C168.335739,211.892517 168.590744,212.725433 168.869080,213.886841 
	C168.583618,213.394211 168.274857,212.573105 168.023407,211.405792 
z"/>
<path fill="#163A57" opacity="1.000000" stroke="none" 
	d="
M167.002502,206.403137 
	C167.324829,206.892609 167.580444,207.731812 167.849365,208.902664 
	C167.553711,208.407166 167.244751,207.580002 167.002502,206.403137 
z"/>
<path fill="#133452" opacity="1.000000" stroke="none" 
	d="
M248.358154,351.805481 
	C248.295593,351.680054 248.421707,351.460419 248.692093,351.108459 
	C248.828705,351.253235 248.732193,351.498291 248.358154,351.805481 
z"/>
<path fill="#74C142" opacity="1.000000" stroke="none" 
	d="
M248.057404,249.012970 
	C248.524002,248.718094 248.990585,248.423203 249.870193,247.873505 
	C250.498138,247.408676 250.727386,247.215698 250.968887,247.007385 
	C250.966812,246.975052 251.031128,246.983078 251.185120,246.816162 
	C251.548615,246.430038 251.766678,246.219742 251.986847,245.999207 
	C251.980362,245.980057 252.018661,245.992966 252.179886,245.815643 
	C252.560791,245.404846 252.790070,245.181213 253.032654,244.999298 
	C253.036362,245.031174 252.972473,245.025177 253.146759,244.841156 
	C253.556793,244.414703 253.792557,244.172272 254.017883,243.970505 
	C254.007462,244.011154 253.926132,243.990341 254.234375,243.890350 
	C255.340393,242.868378 256.138153,241.946396 256.936707,240.979782 
	C256.937531,240.935150 257.026794,240.936691 257.366699,240.867218 
	C259.116943,239.168259 260.527252,237.538773 261.952515,235.938858 
	C261.967499,235.968430 261.908173,235.938858 262.220276,235.848022 
	C263.324432,234.829453 264.116486,233.901718 264.906158,232.936859 
	C264.903778,232.899734 264.977997,232.894897 265.294067,232.788757 
	C268.098267,230.146149 270.586365,227.609665 273.400879,224.998596 
	C274.882568,223.968079 276.037842,223.012131 277.507507,222.115570 
	C280.673706,220.813202 283.896240,219.908188 286.281738,217.971939 
	C289.145813,215.647247 290.548431,216.310547 291.960815,219.141769 
	C292.910919,221.046402 293.478943,223.963333 294.992065,224.606735 
	C299.044922,226.330032 299.145844,229.807144 300.041626,233.041077 
	C300.015228,233.026123 300.062408,232.987885 299.884888,233.167542 
	C299.468262,233.584274 299.229126,233.821365 299.001709,234.028458 
	C299.013367,233.998474 299.067078,234.033905 298.769836,234.136444 
	C297.718445,234.941040 296.964264,235.643082 296.182068,236.275360 
	C296.154022,236.205597 296.293610,236.149567 296.078827,236.363144 
	C295.283844,237.135559 294.703613,237.694397 294.129272,238.188110 
	C294.135193,238.122955 294.265472,238.134811 294.048401,238.346985 
	C293.268463,239.130905 292.705627,239.702652 292.090698,240.211792 
	C292.038605,240.149185 292.163849,240.045074 291.977325,240.228882 
	C291.548340,240.663956 291.305847,240.915207 291.064392,241.113800 
	C291.065399,241.061142 291.170715,241.063217 290.982025,241.242477 
	C290.550446,241.669876 290.307587,241.918015 290.061096,242.102173 
	C290.057465,242.038193 290.185425,242.031006 290.018860,242.270889 
	C289.574432,243.024261 289.296539,243.537735 289.013245,244.024658 
	C289.007904,243.998123 289.049500,244.032898 288.740387,244.133865 
	C287.629883,245.169556 286.828522,246.104294 286.009216,247.018402 
	C285.991333,246.997772 286.045776,246.993454 285.877106,247.172089 
	C285.481262,247.585861 285.249298,247.816147 284.867554,248.340790 
	C273.301361,259.784912 261.871155,270.920654 250.469452,282.085571 
	C248.895889,283.626465 247.463120,285.022461 246.224915,281.830933 
	C247.008072,277.397949 247.523849,273.216705 248.046814,268.563324 
	C248.055161,261.731812 248.056290,255.372375 248.057404,249.012970 
z"/>
<path fill="#62AB34" opacity="1.000000" stroke="none" 
	d="
M248.039612,269.035431 
	C247.523849,273.216705 247.008072,277.397949 245.933563,281.696655 
	C244.608231,281.493317 243.841599,281.172546 243.036682,280.894348 
	C242.998383,280.936859 243.082443,281.014496 242.992126,280.750977 
	C242.605164,280.298920 242.308533,280.110382 242.010971,279.955994 
	C242.010056,279.990143 242.078262,279.986877 242.011261,279.718292 
	C241.624893,279.274689 241.305527,279.099640 240.987427,278.969391 
	C240.988678,279.014160 241.078232,279.011719 240.979889,278.758179 
	C240.583664,278.312561 240.285767,278.120514 240.014069,277.961853 
	C240.040283,277.995239 240.106995,277.942749 239.951950,277.650269 
	C238.547241,276.068024 237.297592,274.778229 235.884796,273.222321 
	C228.672684,265.997192 221.623734,259.038208 214.586792,251.777924 
	C214.480972,250.882187 214.363144,250.287750 214.292236,249.433258 
	C214.333527,248.821609 214.327896,248.469971 214.398132,247.984131 
	C214.556641,247.537140 214.510498,247.246750 214.364731,246.550232 
	C214.354263,244.404388 214.314636,242.687027 214.378510,240.586304 
	C214.363007,234.703583 214.243988,229.204254 214.149567,223.596298 
	C214.174149,223.487686 214.123489,223.270782 214.123489,223.270782 
	C219.050919,221.944565 223.248627,222.740143 225.995514,227.506134 
	C224.862091,227.039459 223.863907,226.440338 222.839569,225.889847 
	C217.971451,223.273651 216.242828,224.247070 216.051392,229.821930 
	C215.948776,232.809677 216.072540,235.804504 216.036972,238.795441 
	C215.996872,242.167770 217.451706,243.761581 220.945419,243.182510 
	C224.599777,242.576782 227.693039,243.754395 229.496521,246.950272 
	C234.145050,255.187744 244.473679,258.703003 247.245865,268.460663 
	C247.316010,268.707489 247.766510,268.846252 248.039612,269.035431 
z"/>
<path fill="#2B567C" opacity="1.000000" stroke="none" 
	d="
M248.987198,183.460663 
	C253.450378,184.321411 257.864868,185.667709 262.297272,186.952118 
	C263.248779,187.227829 264.399963,187.027832 265.230988,187.472946 
	C274.155609,192.253159 283.728668,193.335846 293.674438,193.067474 
	C295.384918,193.021317 297.149780,194.990479 298.977661,196.680511 
	C299.052246,197.543991 299.038757,197.755661 298.897095,198.204773 
	C298.484955,198.657745 298.200958,198.873322 297.752502,199.220825 
	C297.370392,199.533173 297.156738,199.718155 296.771729,200.066406 
	C296.365845,200.439987 296.144775,200.664276 295.759216,201.057602 
	C295.356262,201.433426 295.136871,201.658920 294.627899,202.008972 
	C293.510559,203.043884 292.692444,203.963577 291.632599,204.999725 
	C290.937775,205.399429 290.484619,205.682693 289.583466,205.968231 
	C282.585846,204.694427 276.004608,203.559830 269.495331,202.103455 
	C262.623901,200.566040 255.821121,198.721771 248.988342,197.011536 
	C248.973877,192.649048 248.959396,188.286575 248.987198,183.460663 
z"/>
<path fill="#2B4F71" opacity="1.000000" stroke="none" 
	d="
M248.960846,197.472992 
	C255.821121,198.721771 262.623901,200.566040 269.495331,202.103455 
	C276.004608,203.559830 282.585846,204.694427 289.699982,206.099182 
	C290.264526,206.227814 290.500793,206.486786 290.344574,206.737946 
	C289.757782,207.645859 289.327240,208.302597 288.937378,208.982956 
	C288.978058,209.006577 289.025360,208.925186 288.770081,209.022186 
	C288.292664,209.399368 288.070587,209.679565 287.647797,210.050812 
	C287.195282,210.321304 287.036224,210.562027 286.739624,210.992493 
	C286.313812,211.408401 286.118286,211.695831 285.954041,211.984131 
	C285.985352,211.985001 285.969269,211.924500 285.735626,212.043243 
	C285.309601,212.448227 285.117188,212.734451 284.971283,213.019165 
	C285.017761,213.017654 285.014771,212.924683 284.775085,213.036285 
	C284.331696,213.429520 284.128021,213.711136 283.958405,213.992920 
	C283.992462,213.993073 283.987335,213.925156 283.753540,214.043701 
	C283.322540,214.445465 283.125336,214.728699 282.969788,215.011566 
	C283.011383,215.011185 283.010651,214.927979 282.776245,215.039886 
	C282.339539,215.426453 282.137207,215.701096 281.963196,215.981018 
	C281.991486,215.986282 281.961121,215.937378 281.748779,216.046295 
	C281.276672,216.356216 281.100800,216.614395 280.967438,216.929443 
	C280.925995,216.929138 280.925323,217.012024 280.730713,217.095901 
	C280.285278,217.333633 280.119537,217.552048 279.957855,217.860077 
	C279.876770,217.885117 279.823792,218.046356 279.624634,218.146713 
	C279.182281,218.443695 279.018616,218.692703 278.962769,218.989838 
	C278.991058,218.985550 278.945251,218.951279 278.688934,219.082855 
	C277.941101,219.796188 277.449585,220.377930 276.977844,220.978912 
	C276.997559,220.998169 276.953827,220.963882 276.681152,221.103088 
	C275.332001,222.125443 274.255463,223.008575 273.072510,223.555099 
	C271.289612,221.742615 269.826935,219.843628 267.897339,218.868835 
	C261.684174,215.730026 255.298874,212.931976 248.979919,210.002533 
	C248.964401,205.979843 248.948883,201.957138 248.960846,197.472992 
z"/>
<path fill="#579C32" opacity="1.000000" stroke="none" 
	d="
M248.046829,268.563324 
	C247.766510,268.846252 247.316010,268.707489 247.245865,268.460663 
	C244.473679,258.703003 234.145050,255.187744 229.496521,246.950272 
	C227.693039,243.754395 224.599777,242.576782 220.945419,243.182510 
	C217.451706,243.761581 215.996872,242.167770 216.036972,238.795441 
	C216.072540,235.804504 215.948776,232.809677 216.051392,229.821930 
	C216.242828,224.247070 217.971451,223.273651 222.839569,225.889847 
	C223.863907,226.440338 224.862091,227.039459 226.138275,227.770935 
	C226.404221,227.925674 226.768112,228.157547 227.033920,228.513123 
	C227.554108,229.260208 227.808502,229.651688 228.062881,230.043182 
	C228.062881,230.043182 227.957092,230.043747 228.165894,230.115204 
	C228.766510,230.471741 229.158325,230.756836 229.550140,231.041931 
	C229.918854,231.311798 230.287552,231.581665 230.976059,232.197586 
	C231.436127,232.656891 231.549362,232.792694 231.635605,232.951035 
	C231.635605,232.951035 231.845901,233.055161 232.054718,233.442749 
	C234.690002,236.233902 237.116486,238.637482 239.542953,241.041077 
	C242.231888,243.530807 244.920822,246.020523 247.833588,248.761597 
	C248.056290,255.372375 248.055161,261.731812 248.046829,268.563324 
z"/>
<path fill="#22486A" opacity="1.000000" stroke="none" 
	d="
M248.960739,210.470032 
	C255.298874,212.931976 261.684174,215.730026 267.897339,218.868835 
	C269.826935,219.843628 271.289612,221.742615 273.032898,223.666412 
	C273.099762,224.114319 272.904694,224.240189 272.776062,224.322510 
	C272.482178,224.525772 272.329315,224.660797 271.905823,224.971115 
	C270.486938,226.113327 269.351074,227.094315 267.882874,227.972137 
	C266.292267,227.948853 264.554016,227.527527 263.857727,228.194305 
	C260.624023,231.291046 257.242950,230.094131 253.759003,229.099686 
	C252.194122,228.653030 250.584808,228.362015 248.995667,228.000366 
	C248.977631,222.312744 248.959579,216.625137 248.960739,210.470032 
z"/>
<path fill="#214565" opacity="1.000000" stroke="none" 
	d="
M248.984558,228.463379 
	C250.584808,228.362015 252.194122,228.653030 253.759003,229.099686 
	C257.242950,230.094131 260.624023,231.291046 263.857727,228.194305 
	C264.554016,227.527527 266.292267,227.948853 267.727051,228.265579 
	C266.928375,230.073090 265.953186,231.483994 264.977997,232.894897 
	C264.977997,232.894897 264.903778,232.899734 264.639893,233.075287 
	C263.553406,234.146851 262.730804,235.042862 261.908173,235.938858 
	C261.908173,235.938858 261.967499,235.968430 261.673584,236.101913 
	C259.928680,237.802490 258.477722,239.369583 257.026794,240.936676 
	C257.026794,240.936691 256.937531,240.935150 256.666016,241.112762 
	C255.571732,242.190353 254.748932,243.090347 253.926132,243.990341 
	C253.926132,243.990341 254.007462,244.011154 253.781906,244.088654 
	C253.361725,244.452499 253.167099,244.738846 252.972473,245.025177 
	C252.972473,245.025177 253.036362,245.031174 252.812256,245.114868 
	C252.309570,245.399765 252.119736,245.664566 252.018661,245.992966 
	C252.018661,245.992966 251.980362,245.980057 251.774323,246.101898 
	C251.301453,246.414764 251.122406,246.667862 251.031128,246.983078 
	C251.031128,246.983078 250.966812,246.975052 250.800598,246.990173 
	C250.634384,247.005310 250.304886,246.924118 250.304886,246.924118 
	C249.861069,240.924866 249.417252,234.925629 248.984558,228.463379 
z"/>
<path fill="#092C39" opacity="1.000000" stroke="none" 
	d="
M214.322266,248.118347 
	C214.327896,248.469971 214.333527,248.821609 214.228546,249.811020 
	C214.091171,250.954575 214.064407,251.460358 213.877579,251.602661 
	C213.440918,248.492096 213.164307,245.744995 212.887695,242.997894 
	C212.937607,236.670822 212.987518,230.343765 213.056488,223.559845 
	C213.251358,223.125717 213.427170,223.148422 213.863251,223.220947 
	C214.123489,223.270782 214.174149,223.487686 214.118805,224.094574 
	C214.133972,230.124191 214.204483,235.546936 214.274994,240.969681 
	C214.314636,242.687027 214.354263,244.404388 214.341583,246.833878 
	C214.300247,247.736801 214.311264,247.927567 214.322266,248.118347 
z"/>
<path fill="#62AB34" opacity="1.000000" stroke="none" 
	d="
M239.392441,240.768646 
	C237.116486,238.637482 234.690002,236.233902 232.102020,233.550125 
	C234.374329,235.678680 236.808136,238.087448 239.392441,240.768646 
z"/>
<path fill="#62AB34" opacity="1.000000" stroke="none" 
	d="
M229.406982,230.833710 
	C229.158325,230.756836 228.766510,230.471741 228.165604,230.062317 
	C228.392273,230.167145 228.828064,230.396317 229.406982,230.833710 
z"/>
<path fill="#62AB34" opacity="1.000000" stroke="none" 
	d="
M228.025665,229.800537 
	C227.808502,229.651688 227.554108,229.260208 227.159119,228.688843 
	C227.341827,228.858612 227.665131,229.208267 228.025665,229.800537 
z"/>
<path fill="#62AB34" opacity="1.000000" stroke="none" 
	d="
M231.585846,232.820312 
	C231.549362,232.792694 231.436127,232.656891 231.185211,232.471222 
	C231.272079,232.426498 231.425934,232.523422 231.585846,232.820312 
z"/>
<path fill="#8CC862" opacity="1.000000" stroke="none" 
	d="
M250.212433,247.178024 
	C250.304886,246.924118 250.634384,247.005310 250.802673,247.022522 
	C250.727386,247.215698 250.498138,247.408676 250.135223,247.787247 
	C250.031464,247.781189 250.075714,247.606567 250.212433,247.178024 
z"/>
<path fill="#092C39" opacity="1.000000" stroke="none" 
	d="
M243.074982,280.851807 
	C243.841599,281.172546 244.608231,281.493317 245.666199,281.948364 
	C247.463120,285.022461 248.895889,283.626465 250.469452,282.085571 
	C261.871155,270.920654 273.301361,259.784912 285.106873,248.242920 
	C285.676056,247.561752 285.860901,247.277588 286.045776,246.993439 
	C286.045776,246.993454 285.991333,246.997772 286.291077,246.889343 
	C287.410400,245.864929 288.229950,244.948914 289.049500,244.032898 
	C289.049500,244.032898 289.007904,243.998123 289.308960,243.868256 
	C289.801788,243.169250 289.993622,242.600128 290.185425,242.031006 
	C290.185425,242.031006 290.057465,242.038193 290.402161,242.131668 
	C290.888123,241.837830 291.029419,241.450516 291.170715,241.063217 
	C291.170715,241.063217 291.065399,241.061142 291.408203,241.140488 
	C291.888611,240.828247 292.026215,240.436661 292.163849,240.045074 
	C292.163849,240.045074 292.038605,240.149185 292.451904,240.217194 
	C293.331940,239.568405 293.798706,238.851593 294.265442,238.134796 
	C294.265472,238.134811 294.135193,238.122955 294.496216,238.208832 
	C295.335999,237.579666 295.814819,236.864624 296.293640,236.149567 
	C296.293610,236.149567 296.154022,236.205597 296.534546,236.254639 
	C297.632385,235.547089 298.349731,234.790497 299.067078,234.033905 
	C299.067078,234.033905 299.013367,233.998474 299.254791,233.936127 
	C299.684937,233.578491 299.873688,233.283188 300.062408,232.987885 
	C300.062408,232.987885 300.015228,233.026123 300.336792,232.888489 
	C307.028564,226.476318 313.398773,220.201767 320.274597,213.944336 
	C321.117310,213.974838 321.454315,213.988190 321.791351,214.001556 
	C321.579041,214.399429 321.366730,214.797287 321.024841,215.506989 
	C313.656219,223.953110 306.417206,232.087402 299.036926,240.517303 
	C297.238647,242.577393 295.581635,244.341888 293.525238,246.606949 
	C290.058899,250.367386 286.991913,253.627289 283.667175,257.098053 
	C282.240082,259.169098 281.070740,261.029266 279.879242,262.869385 
	C279.857086,262.849304 279.797302,262.848053 279.797302,262.848053 
	C276.972015,265.688141 274.146698,268.528198 271.135712,271.641632 
	C266.102142,276.773132 261.254272,281.631287 256.211945,286.763092 
	C253.794418,289.223572 251.571335,291.410400 249.152557,293.882996 
	C245.304871,290.678955 241.652893,287.189148 238.131851,283.321777 
	C239.866837,282.246765 241.470917,281.549286 243.074982,280.851807 
z"/>
<path fill="#22486A" opacity="1.000000" stroke="none" 
	d="
M181.355621,278.164368 
	C181.278320,276.419006 181.513245,274.797455 181.748169,273.175873 
	C182.949402,274.137970 184.100067,275.174011 185.366776,276.040375 
	C186.522568,276.830872 188.046982,278.259583 188.987778,277.981628 
	C192.870255,276.834564 194.604614,279.501221 197.095032,281.444336 
	C202.788712,285.886780 208.760468,289.981140 214.710342,294.084808 
	C223.013733,299.811737 231.442719,305.357391 239.710403,311.134521 
	C241.133286,312.128754 241.930038,313.976379 243.179489,315.272217 
	C244.735519,316.886017 246.461212,318.336304 248.434601,319.940308 
	C248.749390,321.764618 248.743195,323.505737 248.675110,325.684265 
	C241.960693,326.318878 239.273605,320.356018 234.781265,317.202545 
	C228.575348,312.846161 222.413864,308.426483 216.215698,304.058960 
	C214.861069,303.104462 213.016403,302.559814 212.102264,301.310608 
	C204.244263,290.572479 191.518082,286.337372 181.355621,278.164368 
z"/>
<path fill="#163A57" opacity="1.000000" stroke="none" 
	d="
M289.944458,310.027557 
	C289.925751,310.004089 289.963135,310.051025 289.944458,310.027557 
z"/>
<path fill="#8CC862" opacity="1.000000" stroke="none" 
	d="
M301.921173,195.060562 
	C302.190918,194.840714 302.460693,194.620865 303.076447,193.999435 
	C303.622375,193.079407 303.822296,192.560959 304.022217,192.042511 
	C305.426758,191.025955 306.831299,190.009399 308.617218,188.987427 
	C308.998627,188.982010 309.108978,189.061279 309.035095,189.408875 
	C306.659668,191.862396 304.358185,193.968353 302.017517,196.030884 
	C301.978302,195.987473 301.899780,195.900742 301.903992,195.690674 
	C301.908234,195.480591 301.921173,195.060562 301.921173,195.060562 
z"/>
<path fill="#8CC862" opacity="1.000000" stroke="none" 
	d="
M297.916992,199.088882 
	C298.200958,198.873322 298.484955,198.657745 299.153168,198.048981 
	C299.730927,197.306244 299.924408,196.956726 300.117920,196.607193 
	C300.367188,196.689331 300.531586,196.605301 300.906555,196.187195 
	C301.434601,195.979797 301.667206,195.940277 301.899780,195.900742 
	C301.899780,195.900742 301.978302,195.987473 301.877197,196.336273 
	C300.482025,197.769485 299.187958,198.853897 297.899414,199.725861 
	C297.904968,199.513412 297.916992,199.088882 297.916992,199.088882 
z"/>
<path fill="#2B4F71" opacity="1.000000" stroke="none" 
	d="
M303.881287,192.273270 
	C303.822296,192.560959 303.622375,193.079407 303.201324,193.767899 
	C303.233582,193.459976 303.486969,192.982010 303.881287,192.273270 
z"/>
<path fill="#8CC862" opacity="1.000000" stroke="none" 
	d="
M308.944580,188.940857 
	C309.001373,188.575165 309.198792,188.316849 309.729553,188.047943 
	C309.976257,187.971146 310.017151,188.016235 309.876953,188.200043 
	C309.544250,188.625168 309.334961,188.850983 309.108978,189.061279 
	C309.108978,189.061279 308.998627,188.982010 308.944580,188.940857 
z"/>
<path fill="#8CC862" opacity="1.000000" stroke="none" 
	d="
M309.956207,187.948257 
	C310.033417,187.598816 310.221558,187.337723 310.740417,187.059189 
	C310.980286,186.976273 311.014465,187.014526 310.858612,187.191620 
	C310.487030,187.598129 310.258514,187.813965 310.017151,188.016235 
	C310.017151,188.016235 309.976257,187.971146 309.956207,187.948257 
z"/>
<path fill="#8CC862" opacity="1.000000" stroke="none" 
	d="
M310.963562,186.956818 
	C311.038177,186.608536 311.221863,186.343796 311.737671,186.058044 
	C311.977417,185.972946 312.014008,186.014145 311.857300,186.190567 
	C311.485046,186.596817 311.256348,186.812668 311.014465,187.014526 
	C311.014465,187.014526 310.980286,186.976273 310.963562,186.956818 
z"/>
<path fill="#8CC862" opacity="1.000000" stroke="none" 
	d="
M311.959473,185.952057 
	C312.032959,185.600891 312.220337,185.339325 312.743286,185.063004 
	C312.982880,184.979523 313.015015,185.015198 312.859131,185.192474 
	C312.487030,185.598984 312.257263,185.813782 312.014008,186.014145 
	C312.014008,186.014145 311.977417,185.972946 311.959473,185.952057 
z"/>
<path fill="#8CC862" opacity="1.000000" stroke="none" 
	d="
M315.788940,181.809433 
	C315.985535,181.543793 316.182159,181.278137 316.597656,180.890518 
	C316.816559,180.768539 316.969421,181.026688 316.871338,181.288025 
	C316.541107,181.730255 316.300110,181.898483 315.984924,181.992859 
	C315.919647,181.931671 315.788940,181.809433 315.788940,181.809433 
z"/>
<path fill="#8CC862" opacity="1.000000" stroke="none" 
	d="
M312.967102,184.961243 
	C313.035522,184.613007 313.209381,184.340149 313.718079,184.041077 
	C313.963257,183.957748 314.015808,184.016144 313.861267,184.194656 
	C313.490723,184.602890 313.260162,184.816895 313.015015,185.015198 
	C313.015015,185.015198 312.982880,184.979523 312.967102,184.961243 
z"/>
<path fill="#2B4F71" opacity="1.000000" stroke="none" 
	d="
M301.903992,195.690674 
	C301.667206,195.940277 301.434601,195.979797 300.848999,196.043106 
	C300.811584,195.840149 301.127167,195.613403 301.681946,195.223602 
	C301.921173,195.060562 301.908234,195.480591 301.903992,195.690674 
z"/>
<path fill="#2B4F71" opacity="1.000000" stroke="none" 
	d="
M299.869171,196.637024 
	C299.924408,196.956726 299.730927,197.306244 299.281311,197.811554 
	C299.038757,197.755661 299.052246,197.543991 299.092834,197.011795 
	C299.286774,196.683136 299.453583,196.674988 299.869171,196.637024 
z"/>
<path fill="#8CC862" opacity="1.000000" stroke="none" 
	d="
M313.937195,183.928375 
	C314.006866,183.575165 314.188965,183.310867 314.706604,183.027710 
	C314.955750,182.949295 315.023560,183.024017 314.869385,183.202972 
	C314.498138,183.611038 314.265015,183.822433 314.015808,184.016144 
	C314.015808,184.016144 313.963257,183.957748 313.937195,183.928375 
z"/>
<path fill="#8CC862" opacity="1.000000" stroke="none" 
	d="
M314.921906,182.911896 
	C314.985168,182.563019 315.153168,182.296143 315.590485,181.941650 
	C315.788940,181.809433 315.919647,181.931671 315.827332,182.168335 
	C315.514404,182.630356 315.277252,182.836700 315.023560,183.024017 
	C315.023560,183.024017 314.955750,182.949295 314.921906,182.911896 
z"/>
<path fill="#0F324E" opacity="1.000000" stroke="none" 
	d="
M243.036682,280.894348 
	C241.470917,281.549286 239.866837,282.246765 237.978134,283.012939 
	C232.614105,278.360535 227.376862,273.795837 222.499680,268.874298 
	C217.613541,263.943756 213.086868,258.656982 208.176910,253.282776 
	C207.657516,250.957489 207.363846,248.875793 207.042862,246.401001 
	C208.773026,245.088303 210.530502,244.168716 212.587830,243.123505 
	C213.164307,245.744995 213.440918,248.492096 214.010910,251.635681 
	C214.304306,252.032166 214.574783,252.079193 214.574783,252.079193 
	C221.623734,259.038208 228.672684,265.997192 235.821655,273.556030 
	C235.467239,277.462280 237.614243,277.893585 240.106995,277.942749 
	C240.106995,277.942749 240.040283,277.995239 240.183212,278.154785 
	C240.576843,278.546814 240.827530,278.779266 241.078217,279.011719 
	C241.078232,279.011719 240.988678,279.014160 241.158142,279.157715 
	C241.577835,279.529816 241.828049,279.758362 242.078262,279.986877 
	C242.078262,279.986877 242.010056,279.990143 242.177460,280.149597 
	C242.590714,280.544220 242.836578,280.779358 243.082443,281.014496 
	C243.082443,281.014496 242.998383,280.936859 243.036682,280.894348 
z"/>
<path fill="#214565" opacity="1.000000" stroke="none" 
	d="
M283.924927,256.887177 
	C286.991913,253.627289 290.058899,250.367386 293.380310,246.905334 
	C294.335663,249.755722 295.036621,252.808258 295.870148,256.438232 
	C298.142365,254.961624 299.701263,253.948563 302.642670,252.037079 
	C298.961426,260.778656 306.407806,262.872772 309.373199,267.445251 
	C310.708374,269.504028 312.285034,271.406189 313.879517,273.697327 
	C314.240509,276.653625 317.283936,279.336029 313.997772,282.139496 
	C310.231323,278.156616 307.047485,273.784912 302.907471,270.693817 
	C298.749359,267.589172 293.689819,265.645966 288.888580,263.499664 
	C288.195557,263.189850 286.684021,264.511841 285.644379,265.216064 
	C283.039185,266.980713 281.002167,267.064636 279.892456,263.198364 
	C279.797302,262.848053 279.857086,262.849304 280.224152,262.824463 
	C284.147919,262.207672 284.702606,259.923035 283.924927,256.887177 
z"/>
<path fill="#7EC74D" opacity="1.000000" stroke="none" 
	d="
M314.869385,183.202972 
	C315.277252,182.836700 315.514404,182.630356 315.892639,182.229523 
	C316.300110,181.898483 316.541107,181.730255 316.947113,181.417480 
	C322.406799,183.172287 326.363007,186.534912 327.066803,192.275116 
	C327.594543,196.579559 327.147278,201.003525 327.064087,205.677246 
	C326.994019,205.980209 327.035889,205.985275 326.858429,206.163422 
	C326.448273,206.582458 326.215576,206.823334 325.982086,207.022919 
	C325.981293,206.981644 326.063843,206.979980 325.891327,207.155930 
	C325.490997,207.566986 325.265533,207.804337 324.945099,208.309662 
	C324.546722,209.049210 324.245636,209.523010 323.944519,209.996826 
	C323.944550,209.996826 324.002930,210.002228 323.699707,210.111694 
	C322.187347,211.456528 320.978149,212.691879 319.768951,213.927216 
	C313.398773,220.201767 307.028564,226.476318 300.363220,232.903458 
	C299.145844,229.807144 299.044922,226.330032 294.992065,224.606735 
	C293.478943,223.963333 292.910919,221.046402 291.960815,219.141769 
	C290.548431,216.310547 289.145813,215.647247 286.281738,217.971939 
	C283.896240,219.908188 280.673706,220.813202 277.444885,221.842621 
	C277.029877,221.328156 276.991852,221.146027 276.953827,220.963882 
	C276.953827,220.963882 276.997559,220.998169 277.218201,220.823334 
	C277.940979,220.082748 278.443115,219.517014 278.945251,218.951279 
	C278.945251,218.951279 278.991058,218.985550 279.114258,218.831131 
	C279.437439,218.470810 279.632874,218.260696 279.823792,218.046356 
	C279.823792,218.046356 279.876770,217.885117 280.106049,217.728882 
	C280.534241,217.388123 280.730927,217.201248 280.925323,217.012024 
	C280.925323,217.012024 280.925995,216.929138 281.126129,216.766602 
	C281.538422,216.382324 281.750061,216.160095 281.961121,215.937378 
	C281.961121,215.937378 281.991486,215.986282 282.144531,215.808990 
	C282.535278,215.397141 282.772980,215.162567 283.010651,214.927979 
	C283.010651,214.927979 283.011383,215.011185 283.149872,214.833359 
	C283.521362,214.412079 283.754364,214.168625 283.987335,213.925156 
	C283.987335,213.925156 283.992462,213.993073 284.143860,213.818542 
	C284.535095,213.404236 284.774933,213.164459 285.014771,212.924683 
	C285.014771,212.924683 285.017761,213.017654 285.148499,212.838776 
	C285.509247,212.414764 285.739258,212.169632 285.969269,211.924500 
	C285.969269,211.924500 285.985352,211.985001 286.131104,211.799454 
	C286.507843,211.363937 286.738892,211.113983 286.969910,210.864014 
	C287.036224,210.562027 287.195282,210.321304 287.849182,209.885315 
	C288.509338,209.394257 288.767365,209.159729 289.025360,208.925201 
	C289.025360,208.925186 288.978058,209.006577 289.291016,208.916122 
	C292.061249,206.187546 294.518585,203.549423 296.986938,200.952057 
	C296.997955,200.992798 296.916412,201.014786 297.107300,200.838196 
	C297.536346,200.410522 297.774475,200.159424 297.990265,199.944885 
	C297.967926,199.981430 297.893890,199.938309 297.893890,199.938293 
	C299.187958,198.853897 300.482025,197.769485 301.916412,196.379684 
	C304.358185,193.968353 306.659668,191.862396 309.035095,189.408875 
	C309.334961,188.850983 309.544250,188.625168 309.876953,188.200043 
	C310.258514,187.813965 310.487030,187.598129 310.858612,187.191620 
	C311.256348,186.812668 311.485046,186.596817 311.857300,186.190567 
	C312.257263,185.813782 312.487030,185.598984 312.859131,185.192474 
	C313.260162,184.816895 313.490723,184.602890 313.861267,184.194656 
	C314.265015,183.822433 314.498138,183.611038 314.869385,183.202972 
M321.903809,205.594971 
	C322.106323,205.303650 322.322083,205.019745 322.494354,204.711517 
	C322.515594,204.673477 322.304840,204.505783 322.201599,204.398178 
	C322.045807,204.732025 321.889984,205.065887 321.903809,205.594971 
z"/>
<path fill="#163A57" opacity="1.000000" stroke="none" 
	d="
M328.718872,205.007141 
	C328.775696,205.202179 328.570435,205.463501 328.150787,205.855835 
	C328.109863,205.682373 328.283356,205.377899 328.718872,205.007141 
z"/>
<path fill="#163A57" opacity="1.000000" stroke="none" 
	d="
M327.727844,205.939438 
	C327.829803,206.245544 327.688629,206.560867 327.282654,206.964432 
	C327.017914,207.052689 326.885254,206.888153 326.918884,206.661758 
	C326.952515,206.435364 327.035889,205.985275 327.035889,205.985275 
	C327.035889,205.985275 326.994019,205.980209 326.998840,206.001175 
	C327.003693,206.022141 327.484711,205.948654 327.727844,205.939438 
z"/>
<path fill="#163A57" opacity="1.000000" stroke="none" 
	d="
M320.274597,213.944351 
	C320.978149,212.691879 322.187347,211.456528 323.689087,210.084381 
	C323.398834,211.183807 322.815948,212.420029 322.012207,213.828903 
	C321.454315,213.988190 321.117310,213.974838 320.274597,213.944351 
z"/>
<path fill="#163A57" opacity="1.000000" stroke="none" 
	d="
M324.242310,209.916412 
	C324.245636,209.523010 324.546722,209.049210 325.159546,208.273163 
	C325.471313,207.970947 325.901794,207.901657 325.965881,207.951324 
	C326.029968,208.000992 326.157776,208.100784 326.157776,208.100784 
	C325.618561,208.679199 325.079346,209.257614 324.242310,209.916412 
z"/>
<path fill="#163A57" opacity="1.000000" stroke="none" 
	d="
M327.084412,207.134857 
	C326.979218,207.464661 326.773560,207.679840 326.345856,207.981674 
	C326.157776,208.100784 326.029968,208.000992 326.008179,207.721222 
	C325.986420,207.441467 326.063843,206.979980 326.063843,206.979980 
	C326.063843,206.979980 325.981293,206.981644 326.208099,206.979507 
	C326.434906,206.977371 326.885254,206.888153 326.885254,206.888153 
	C326.885254,206.888153 327.017914,207.052689 327.084412,207.134857 
z"/>
<path fill="#8CC862" opacity="1.000000" stroke="none" 
	d="
M265.294067,232.788757 
	C265.953186,231.483994 266.928375,230.073090 268.059357,228.368744 
	C269.351074,227.094315 270.486938,226.113327 272.100739,225.033722 
	C272.578674,224.935089 272.989471,224.988602 273.010559,225.009888 
	C273.031677,225.031158 273.074432,225.073181 273.074432,225.073181 
	C270.586365,227.609665 268.098267,230.146149 265.294067,232.788757 
z"/>
<path fill="#8CC862" opacity="1.000000" stroke="none" 
	d="
M257.366699,240.867218 
	C258.477722,239.369583 259.928680,237.802490 261.658600,236.072342 
	C260.527252,237.538773 259.116943,239.168259 257.366699,240.867218 
z"/>
<path fill="#8CC862" opacity="1.000000" stroke="none" 
	d="
M276.681152,221.103088 
	C276.991852,221.146027 277.029877,221.328156 277.130493,221.783234 
	C276.037842,223.012131 274.882568,223.968079 273.400879,224.998596 
	C273.074432,225.073181 273.031677,225.031158 272.996826,224.821930 
	C272.961975,224.612701 272.904694,224.240189 272.904694,224.240189 
	C272.904694,224.240189 273.099762,224.114319 273.139343,224.003021 
	C274.255463,223.008575 275.332001,222.125443 276.681152,221.103088 
z"/>
<path fill="#8CC862" opacity="1.000000" stroke="none" 
	d="
M262.220276,235.848022 
	C262.730804,235.042862 263.553406,234.146851 264.642273,233.112411 
	C264.116486,233.901718 263.324432,234.829453 262.220276,235.848022 
z"/>
<path fill="#8CC862" opacity="1.000000" stroke="none" 
	d="
M254.234375,243.890350 
	C254.748932,243.090347 255.571732,242.190353 256.665222,241.157379 
	C256.138153,241.946396 255.340393,242.868378 254.234375,243.890350 
z"/>
<path fill="#7EC74D" opacity="1.000000" stroke="none" 
	d="
M288.740387,244.133865 
	C288.229950,244.948914 287.410400,245.864929 286.308990,246.909973 
	C286.828522,246.104294 287.629883,245.169556 288.740387,244.133865 
z"/>
<path fill="#7EC74D" opacity="1.000000" stroke="none" 
	d="
M298.769836,234.136444 
	C298.349731,234.790497 297.632385,235.547089 296.562561,236.324417 
	C296.964264,235.643082 297.718445,234.941040 298.769836,234.136444 
z"/>
<path fill="#7EC74D" opacity="1.000000" stroke="none" 
	d="
M296.078857,236.363159 
	C295.814819,236.864624 295.335999,237.579666 294.490295,238.273987 
	C294.703613,237.694397 295.283844,237.135559 296.078857,236.363159 
z"/>
<path fill="#7EC74D" opacity="1.000000" stroke="none" 
	d="
M294.048401,238.346985 
	C293.798706,238.851593 293.331940,239.568405 292.503967,240.279785 
	C292.705627,239.702652 293.268463,239.130905 294.048401,238.346985 
z"/>
<path fill="#7EC74D" opacity="1.000000" stroke="none" 
	d="
M290.018860,242.270889 
	C289.993622,242.600128 289.801788,243.169250 289.314301,243.894791 
	C289.296539,243.537735 289.574432,243.024261 290.018860,242.270889 
z"/>
<path fill="#8CC862" opacity="1.000000" stroke="none" 
	d="
M251.185120,246.816162 
	C251.122406,246.667862 251.301453,246.414764 251.780792,246.121048 
	C251.766678,246.219742 251.548615,246.430038 251.185120,246.816162 
z"/>
<path fill="#8CC862" opacity="1.000000" stroke="none" 
	d="
M252.179886,245.815643 
	C252.119736,245.664566 252.309570,245.399765 252.808563,245.083008 
	C252.790070,245.181213 252.560791,245.404846 252.179886,245.815643 
z"/>
<path fill="#8CC862" opacity="1.000000" stroke="none" 
	d="
M253.146759,244.841156 
	C253.167099,244.738846 253.361725,244.452499 253.792328,244.048004 
	C253.792557,244.172272 253.556793,244.414703 253.146759,244.841156 
z"/>
<path fill="#7EC74D" opacity="1.000000" stroke="none" 
	d="
M285.877075,247.172089 
	C285.860901,247.277588 285.676056,247.561752 285.251862,247.943756 
	C285.249298,247.816147 285.481262,247.585861 285.877075,247.172089 
z"/>
<path fill="#7EC74D" opacity="1.000000" stroke="none" 
	d="
M299.884888,233.167542 
	C299.873688,233.283188 299.684937,233.578491 299.243103,233.966125 
	C299.229126,233.821365 299.468262,233.584274 299.884888,233.167542 
z"/>
<path fill="#7EC74D" opacity="1.000000" stroke="none" 
	d="
M291.977325,240.228882 
	C292.026215,240.436661 291.888611,240.828247 291.407166,241.193146 
	C291.305847,240.915207 291.548340,240.663956 291.977325,240.228882 
z"/>
<path fill="#7EC74D" opacity="1.000000" stroke="none" 
	d="
M290.982025,241.242477 
	C291.029419,241.450516 290.888123,241.837830 290.405762,242.195648 
	C290.307587,241.918015 290.550446,241.669876 290.982025,241.242477 
z"/>
<path fill="#2B4F71" opacity="1.000000" stroke="none" 
	d="
M214.378510,240.586304 
	C214.204483,235.546936 214.133972,230.124191 214.094208,224.203186 
	C214.243988,229.204254 214.363007,234.703583 214.378510,240.586304 
z"/>
<path fill="#092C39" opacity="1.000000" stroke="none" 
	d="
M239.951950,277.650269 
	C237.614243,277.893585 235.467239,277.462280 235.984802,273.822144 
	C237.297592,274.778229 238.547241,276.068024 239.951950,277.650269 
z"/>
<path fill="#2B4F71" opacity="1.000000" stroke="none" 
	d="
M214.586792,251.777924 
	C214.574783,252.079193 214.304306,252.032166 214.170975,251.999146 
	C214.064407,251.460358 214.091171,250.954575 214.181610,250.071045 
	C214.363144,250.287750 214.480972,250.882187 214.586792,251.777924 
z"/>
<path fill="#2B4F71" opacity="1.000000" stroke="none" 
	d="
M214.398132,247.984131 
	C214.311264,247.927567 214.300247,247.736801 214.312408,247.262375 
	C214.510498,247.246750 214.556641,247.537140 214.398132,247.984131 
z"/>
<path fill="#092C39" opacity="1.000000" stroke="none" 
	d="
M240.979889,278.758179 
	C240.827530,278.779266 240.576843,278.546814 240.156998,278.121399 
	C240.285767,278.120514 240.583664,278.312561 240.979889,278.758179 
z"/>
<path fill="#092C39" opacity="1.000000" stroke="none" 
	d="
M242.011261,279.718292 
	C241.828049,279.758362 241.577835,279.529816 241.156891,279.112976 
	C241.305527,279.099640 241.624893,279.274689 242.011261,279.718292 
z"/>
<path fill="#092C39" opacity="1.000000" stroke="none" 
	d="
M242.992126,280.750977 
	C242.836578,280.779358 242.590714,280.544220 242.178375,280.115479 
	C242.308533,280.110382 242.605164,280.298920 242.992126,280.750977 
z"/>
<path fill="#2B4F71" opacity="1.000000" stroke="none" 
	d="
M291.874298,204.883255 
	C292.692444,203.963577 293.510559,203.043884 294.642700,202.032501 
	C294.956665,201.940811 294.987610,201.987000 294.832336,202.250229 
	C293.778107,203.336060 292.879181,204.158661 291.953979,204.956512 
	C291.927734,204.931747 291.874298,204.883255 291.874298,204.883255 
z"/>
<path fill="#2B4F71" opacity="1.000000" stroke="none" 
	d="
M290.148010,206.096878 
	C290.484619,205.682693 290.937775,205.399429 291.632599,204.999725 
	C291.874298,204.883255 291.927734,204.931747 291.823486,205.190674 
	C291.313080,205.795334 290.906921,206.141052 290.500793,206.486786 
	C290.500793,206.486786 290.264526,206.227814 290.148010,206.096878 
z"/>
<path fill="#2B4F71" opacity="1.000000" stroke="none" 
	d="
M294.941895,201.917282 
	C295.136871,201.658920 295.356262,201.433426 295.774323,201.081726 
	C295.963409,200.946198 295.995300,200.993362 295.880096,201.207382 
	C295.562836,201.688309 295.303741,201.876846 294.987610,201.987000 
	C294.987610,201.987000 294.956665,201.940811 294.941895,201.917282 
z"/>
<path fill="#2B4F71" opacity="1.000000" stroke="none" 
	d="
M295.948303,200.922073 
	C296.144775,200.664276 296.365845,200.439987 296.783203,200.088226 
	C296.969971,199.951401 296.994476,199.994583 296.973389,200.249512 
	C296.940369,200.674561 296.928406,200.844666 296.916412,201.014786 
	C296.916412,201.014786 296.997955,200.992798 296.741730,200.973602 
	C296.485504,200.954407 295.995300,200.993362 295.995300,200.993362 
	C295.995300,200.993362 295.963409,200.946198 295.948303,200.922073 
z"/>
<path fill="#2B4F71" opacity="1.000000" stroke="none" 
	d="
M297.752502,199.220825 
	C297.916992,199.088882 297.904968,199.513412 297.899414,199.725861 
	C297.893890,199.938309 297.967926,199.981430 297.734802,199.959198 
	C297.332581,199.956177 297.163513,199.975372 296.994476,199.994583 
	C296.994476,199.994583 296.969971,199.951401 296.958496,199.929565 
	C297.156738,199.718155 297.370392,199.533173 297.752502,199.220825 
z"/>
<path fill="#8CC862" opacity="1.000000" stroke="none" 
	d="
M295.880096,201.207382 
	C295.995300,200.993362 296.485504,200.954407 296.730713,200.932861 
	C294.518585,203.549423 292.061249,206.187546 289.250305,208.892502 
	C289.327240,208.302597 289.757782,207.645859 290.344574,206.737946 
	C290.906921,206.141052 291.313080,205.795334 291.849731,205.215454 
	C292.879181,204.158661 293.778107,203.336060 294.832336,202.250229 
	C295.303741,201.876846 295.562836,201.688309 295.880096,201.207382 
z"/>
<path fill="#8CC862" opacity="1.000000" stroke="none" 
	d="
M278.688934,219.082855 
	C278.443115,219.517014 277.940979,220.082748 277.198486,220.804077 
	C277.449585,220.377930 277.941101,219.796188 278.688934,219.082855 
z"/>
<path fill="#8CC862" opacity="1.000000" stroke="none" 
	d="
M282.776245,215.039886 
	C282.772980,215.162567 282.535278,215.397141 282.116272,215.803741 
	C282.137207,215.701096 282.339539,215.426453 282.776245,215.039886 
z"/>
<path fill="#8CC862" opacity="1.000000" stroke="none" 
	d="
M288.770081,209.022186 
	C288.767365,209.159729 288.509338,209.394257 288.049927,209.794281 
	C288.070587,209.679565 288.292664,209.399368 288.770081,209.022186 
z"/>
<path fill="#8CC862" opacity="1.000000" stroke="none" 
	d="
M286.739624,210.992493 
	C286.738892,211.113983 286.507843,211.363937 286.099792,211.798584 
	C286.118286,211.695831 286.313812,211.408401 286.739624,210.992493 
z"/>
<path fill="#8CC862" opacity="1.000000" stroke="none" 
	d="
M285.735626,212.043243 
	C285.739258,212.169632 285.509247,212.414764 285.102020,212.840302 
	C285.117188,212.734451 285.309601,212.448227 285.735626,212.043243 
z"/>
<path fill="#8CC862" opacity="1.000000" stroke="none" 
	d="
M284.775085,213.036285 
	C284.774933,213.164459 284.535095,213.404236 284.109802,213.818390 
	C284.128021,213.711136 284.331696,213.429520 284.775085,213.036285 
z"/>
<path fill="#8CC862" opacity="1.000000" stroke="none" 
	d="
M283.753540,214.043701 
	C283.754364,214.168625 283.521362,214.412079 283.108276,214.833740 
	C283.125336,214.728699 283.322540,214.445465 283.753540,214.043701 
z"/>
<path fill="#8CC862" opacity="1.000000" stroke="none" 
	d="
M281.748779,216.046295 
	C281.750061,216.160095 281.538422,216.382324 281.167572,216.766907 
	C281.100800,216.614395 281.276672,216.356216 281.748779,216.046295 
z"/>
<path fill="#8CC862" opacity="1.000000" stroke="none" 
	d="
M280.730713,217.095901 
	C280.730927,217.201248 280.534241,217.388123 280.187134,217.703842 
	C280.119537,217.552048 280.285278,217.333633 280.730713,217.095901 
z"/>
<path fill="#8CC862" opacity="1.000000" stroke="none" 
	d="
M279.624634,218.146713 
	C279.632874,218.260696 279.437439,218.470810 279.085999,218.835419 
	C279.018616,218.692703 279.182281,218.443695 279.624634,218.146713 
z"/>
<path fill="#2B4F71" opacity="1.000000" stroke="none" 
	d="
M272.776062,224.322510 
	C272.904694,224.240189 272.961975,224.612701 272.975708,224.800659 
	C272.989471,224.988602 272.578674,224.935089 272.383789,224.872482 
	C272.329315,224.660797 272.482178,224.525772 272.776062,224.322510 
z"/>
<path fill="#1D405F" opacity="1.000000" stroke="none" 
	d="
M283.667175,257.098053 
	C284.702606,259.923035 284.147919,262.207672 280.246307,262.844513 
	C281.070740,261.029266 282.240082,259.169098 283.667175,257.098053 
z"/>
<path fill="#8CC862" opacity="1.000000" stroke="none" 
	d="
M321.819000,205.497345 
	C321.889984,205.065887 322.045807,204.732025 322.201599,204.398178 
	C322.304840,204.505783 322.515594,204.673477 322.494354,204.711517 
	C322.322083,205.019745 322.106323,205.303650 321.819000,205.497345 
z"/>
<path fill="#8CC862" opacity="1.000000" stroke="none" 
	d="
M326.918884,206.661758 
	C326.885254,206.888153 326.434906,206.977371 326.208893,207.020782 
	C326.215576,206.823334 326.448273,206.582458 326.858429,206.163422 
	C327.035889,205.985275 326.952515,206.435364 326.918884,206.661758 
z"/>
<path fill="#8CC862" opacity="1.000000" stroke="none" 
	d="
M325.891327,207.155930 
	C326.063843,206.979980 325.986420,207.441467 325.944092,207.671570 
	C325.901794,207.901657 325.471313,207.970947 325.256836,208.007431 
	C325.265533,207.804337 325.490997,207.566986 325.891327,207.155930 
z"/>
<path fill="#8CC862" opacity="1.000000" stroke="none" 
	d="
M296.973389,200.249512 
	C297.163513,199.975372 297.332581,199.956177 297.757141,199.922638 
	C297.774475,200.159424 297.536346,200.410522 297.107300,200.838196 
	C296.928406,200.844666 296.940369,200.674561 296.973389,200.249512 
z"/>
</svg>